<svg width="10" height="10" viewBox="0 0 10 10" fill="none" xmlns="http://www.w3.org/2000/svg">
<rect width="10" height="10" fill="#F5F5F5"/>
<g id="Generated Design">
<rect width="1873" height="65" transform="translate(-222 -27)" fill="white"/>
<g id="Frame" clip-path="url(#clip0_0_1)">
<path id="Vector" fill-rule="evenodd" clip-rule="evenodd" d="M8.3399 3.7847C8.23142 3.67622 8.05554 3.67622 7.94705 3.7847L4.90274 6.82902L1.85842 3.7847C1.74993 3.67622 1.57405 3.67622 1.46557 3.7847C1.3571 3.89317 1.3571 4.06905 1.46557 4.17753L4.57537 7.28733C4.75617 7.46813 5.0493 7.46813 5.2301 7.28733L8.3399 4.17753C8.44837 4.06905 8.44837 3.89317 8.3399 3.7847Z" fill="black"/>
<path id="Vector_2" d="M4.90269 6.82902L4.50985 7.22185C4.61404 7.32604 4.75535 7.38458 4.90269 7.38458C5.05002 7.38458 5.19134 7.32604 5.29553 7.22185L4.90269 6.82902ZM8.33985 4.17753C8.23137 4.28602 8.05549 4.28602 7.947 4.17753L8.73268 3.39186C8.40725 3.06642 7.8796 3.06642 7.55417 3.39186L8.33985 4.17753ZM5.29553 7.22185L8.33985 4.17753L7.55417 3.39186L4.50985 6.43619L5.29553 7.22185ZM1.46553 4.17753L4.50985 7.22185L5.29553 6.43619L2.2512 3.39186L1.46553 4.17753ZM1.85836 4.17754C1.74988 4.28602 1.574 4.28601 1.46553 4.17753L2.2512 3.39186C1.92577 3.06642 1.39813 3.06642 1.07269 3.39186L1.85836 4.17754ZM1.85837 3.7847C1.96685 3.89318 1.96684 4.06906 1.85836 4.17754L1.07269 3.39186C0.747254 3.7173 0.747254 4.24493 1.07269 4.57038L1.85837 3.7847ZM4.96816 6.8945L1.85837 3.7847L1.07269 4.57038L4.18248 7.68016L4.96816 6.8945ZM4.83721 6.8945C4.87337 6.85833 4.932 6.85833 4.96816 6.8945L4.18248 7.68016C4.58024 8.07792 5.22514 8.07792 5.62289 7.68016L4.83721 6.8945ZM7.947 3.7847L4.83721 6.8945L5.62289 7.68016L8.73268 4.57038L7.947 3.7847ZM7.947 4.17753C7.83851 4.06905 7.83851 3.89318 7.947 3.7847L8.73268 4.57038C9.05813 4.24494 9.05813 3.7173 8.73268 3.39186L7.947 4.17753Z" fill="black"/>
</g>
</g>
<defs>
<clipPath id="clip0_0_1">
<rect width="10" height="10" fill="white"/>
</clipPath>
</defs>
</svg>
