<svg width="16" height="16" viewBox="0 0 16 16" fill="none" xmlns="http://www.w3.org/2000/svg">
<rect width="16" height="16" fill="#F5F5F5"/>
<g id="Generated Design">
<rect width="1873" height="65" transform="translate(-636 -23)" fill="white"/>
<g id="Frame" clip-path="url(#clip0_0_1)">
<path id="Vector" d="M7.23181 8.65895V1.75796C7.23181 1.33935 7.57582 1 8.00018 1C8.42453 1 8.76854 1.33935 8.76854 1.75796V8.67097L9.98589 7.47009C10.286 7.17409 10.7725 7.17409 11.0725 7.47009C11.3726 7.7661 11.3726 8.24601 11.0725 8.54201L8.54958 11.0308C8.24952 11.3268 7.76302 11.3268 7.46295 11.0308L4.94002 8.54201C4.63995 8.24601 4.63995 7.7661 4.94002 7.47009C5.24008 7.17409 5.72658 7.17409 6.02665 7.47009L7.23181 8.65895Z" fill="black"/>
<path id="Vector_2" d="M3.48023 4.29937C2.40686 4.29937 1.53672 5.15773 1.53672 6.21657V11.5669C1.53672 12.6257 2.40686 13.4841 3.48023 13.4841H12.5198C13.5931 13.4841 14.4633 12.6257 14.4633 11.5669V6.21657C14.4633 5.15773 13.5931 4.29937 12.5198 4.29937H11.6158C11.1915 4.29937 10.8475 3.96002 10.8475 3.54141C10.8475 3.1228 11.1915 2.78345 11.6158 2.78345H12.5198C14.4418 2.78345 16 4.32051 16 6.21657V11.5669C16 13.4629 14.4418 15 12.5198 15H3.48023C1.55815 15 0 13.4629 0 11.5669V6.21657C0 4.32051 1.55815 2.78345 3.48023 2.78345H4.38418C4.80853 2.78345 5.15254 3.1228 5.15254 3.54141C5.15254 3.96002 4.80853 4.29937 4.38418 4.29937H3.48023Z" fill="black"/>
</g>
</g>
<defs>
<clipPath id="clip0_0_1">
<rect width="16" height="16" fill="white"/>
</clipPath>
</defs>
</svg>
